<?xml version="1.0" encoding="utf-8"?>
<!-- Generator: Adobe Illustrator 16.0.0, SVG Export Plug-In . SVG Version: 6.00 Build 0)  -->
<!DOCTYPE svg PUBLIC "-//W3C//DTD SVG 1.1//EN" "http://www.w3.org/Graphics/SVG/1.1/DTD/svg11.dtd">
<svg version="1.1" xmlns="http://www.w3.org/2000/svg" xmlns:xlink="http://www.w3.org/1999/xlink" x="0px" y="0px" width="196px"
	 height="196px" viewBox="0 0 196 196" enable-background="new 0 0 196 196" xml:space="preserve">
<g id="Layer_2">
	<rect fill="#184D60" width="196" height="196"/>
</g>
<g id="Layer_1">
	<g id="Forma_1_1_">
		<g>
			<path fill="#66B1D1" d="M139.211,84.809l-16.825,5.027l-1.239,3.821l20.183-6.29L139.211,84.809z M140.661,64.195l0.35-4.66
				c-5.426-5.988-12.042-10.82-19.562-14.177l-4.416,1.711C126.41,50.565,134.55,56.578,140.661,64.195z M81.754,45.848
				c4.872,1.874,11.488,4.416,14.551,5.564l1.646,0.668l1.629-0.668c3.016-1.132,9.468-3.601,14.275-5.451l4.71-1.825l1.074-0.399
				l-5.361-9.565l-2.143-3.838c-4.701-0.97-9.524-1.507-14.502-1.507c-4.995,0-9.834,0.538-14.511,1.507l-1.964,3.805l-4.961,9.598
				l0.814,0.269L81.754,45.848z M122.671,132.782l0.114-0.032l-10.413-14.446h-4.024l12.311,17.289L122.671,132.782z
				 M73.199,132.782l1.695,2.64l12.294-17.118h-4.041L73.199,132.782z M78.495,46.931l-4.433-1.703
				c-7.324,3.227-13.883,7.903-19.228,13.68l0.301,4.579C61.254,56.114,69.296,50.329,78.495,46.931z M119.787,90.773l0.032-0.114
				l0.065-0.236c-1.027-0.741-15.335-10.698-20.312-14.185l-1.638-1.148l-1.638,1.148L75.969,90.423l0.09,0.236l0.041,0.114
				c1.067,3.251,7.936,24.052,8.359,25.372h26.936C111.834,114.825,118.711,94.024,119.787,90.773z M99.58,73.582V53.767
				l-1.646,0.62l-1.629-0.62v19.815l1.629-1.148L99.58,73.582z M97.625,151.725c-4.595,0-9.068-0.562-13.329-1.621l2.469,3.862
				c3.528,0.643,7.162,1.019,10.86,1.019c3.952,0,7.806-0.407,11.554-1.149l2.51-3.935
				C107.206,151.106,102.48,151.725,97.625,151.725z M143.487,127.218l4.604-1.223c3.715-6.42,6.216-13.614,7.186-21.272
				l-2.965-3.675C151.709,110.678,148.548,119.615,143.487,127.218z M73.484,89.844L56.61,84.67l-1.858,2.518l19.978,6.478
				L73.484,89.844z M97.992,2.421C44.584,2.421,1.15,45.302,1.15,97.992c0,52.706,43.435,95.587,96.842,95.587
				c53.391,0,96.857-42.881,96.857-95.587C194.85,45.302,151.383,2.421,97.992,2.421z M98,171.198
				c-40.722,0-73.719-32.55-73.719-72.733c0-40.192,32.998-72.75,73.719-72.75c40.706,0,73.703,32.566,73.694,72.75
				C171.694,138.648,138.706,171.198,98,171.198z M146.593,128.635l-0.14,0.024l-4.929,1.319l-17.477,4.661l-9.158,14.299
				l-2.664,4.213l-0.619,0.945c1.019,0.512,5.605,2.777,9.68,4.766l3.927,1.947c9.255-3.952,17.46-9.81,24.134-17.109l-0.767-4.123
				L146.593,128.635z M158.251,63.748l-4.261-0.733c-4.514-0.758-9.753-1.654-10.901-1.858l-0.049,0.766l-0.367,4.946l-1.173,16.76
				l-0.033,0.497l1.866,2.347l9.093,11.276l3.146,3.862l0.407,0.521l7.992-7.602l3.08-2.95
				C166.171,81.534,163.083,72.099,158.251,63.748z M52.553,86.479l1.857-2.355l-0.033-0.489c-0.139-2.257-0.807-11.562-1.23-17.542
				l-0.342-4.897v-0.041c-1.247,0.212-6.991,1.182-11.611,2.004l-4.269,0.701c-4.685,8.181-7.724,17.363-8.686,27.164l3.08,2.95
				l8.384,7.985l0.188,0.179l2.949-3.658C45.758,94.847,50.084,89.51,52.553,86.479z M51.657,127.013
				c-4.873-7.381-7.952-16.001-8.653-25.266l-2.9,3.61l-0.049-0.049c1.043,7.626,3.438,14.404,7.219,20.792L51.657,127.013z
				 M81.119,149.231c-2.494-3.936-5.899-9.197-7.822-12.205l-1.499-2.37l-0.351-0.065c-2.02-0.57-11.977-3.242-17.884-4.791
				l-4.261-1.149l-0.122,0.636l-1.792,11.138l-0.676,4.131c6.673,7.023,14.748,12.686,23.832,16.483l3.911-1.988l9.842-4.938
				l-0.521-0.79L81.119,149.231z"/>
		</g>
	</g>
</g>
</svg>
